<?xml version="1.0" encoding="UTF-8"?>
<svg id="_レイヤー_1" data-name="レイヤー 1" xmlns="http://www.w3.org/2000/svg" viewBox="0 0 770.41 658">
  <defs>
    <style>
      .cls-1 {
        fill: #eb0d00;
      }

      .cls-2 {
        fill: #7d0843;
      }

      .cls-3 {
        fill: #36dc00;
      }

      .cls-4 {
        fill: #fff;
      }

      .cls-5 {
        fill: #06610d;
      }

      .cls-6 {
        fill: #61ae66;
      }

      .cls-7 {
        fill: #ff336c;
      }

      .cls-8 {
        fill: #f8e9cf;
      }

      .cls-9 {
        fill: #ff5a00;
      }

      .cls-10 {
        fill: #0d9fff;
      }

      .cls-11 {
        fill: #ffc000;
      }

      .cls-12 {
        fill: #a67800;
      }

      .cls-13 {
        fill: #ff83eb;
      }
    </style>
  </defs>
  <path class="cls-5" d="M227,46.1c3.14-12.05,7.99-23.75,10.51-35.98,2.74-13.34.11-10.74-11.51-7.51-49.05,13.63-101.22,62.99-87.4,118.53l-21.1,26.97c-1.42-21.66-1.05-47.52-9.02-67.97-2.43-6.23-2.74-5.45-7.49-1.54-5.18,4.26-12.13,13.13-16.38,18.62-27.69,35.73-44.86,79.11-21.13,121.92,1.62,2.92,9.31,13.12,9.54,14.53,1.17,7.16-8.07,23.18-8.03,31.45-5.43-6.51-8.27-15.53-12.47-23.02-3.66-6.52-21.75-35.78-27.04-37.97-1.68-.7-1.35.67-1.7,1.27-12.72,21.57-19.17,67.52-15.66,92.1,4.54,31.82,23.22,52.86,49.33,69.67l6.56,38.44-18.48-19.52C31.57,374.54,17.22,362.39,0,356.11c-.19,50.57,16.62,113.79,68.03,134.46,10.77,4.33,21,5.75,32.36,7.64,6.45,7.44,11.16,16.19,16.79,24.21,1.41,2.01,6.28,7.05,6.81,8.2.24.53.19,1.7-.49,1.48-24.64-12.78-52.69-21.3-80.5-22.99-1.6,1.54,13.47,27.53,15.58,30.91,27.69,44.34,79.6,86.7,135.24,74.41,6.4-1.41,12.18-4.37,18.43-6.15,103.82,66.22,241.2,66.05,345.49.97,69.69,28.07,139.89-30.79,167.8-91.1.96-2.08,2.54-4.67,2-7.03-1.05-2.28-7.37-1.23-10.03-1-23.56,2.02-48.92,11.74-70.02,21.98l-.49-1.48,22.45-31.55c6.66-2.71,14.36-2.6,21.55-4.45,45.72-11.81,67.2-54.34,75.53-97.47,2.18-11.28,4.94-28.36,3.47-39.55-.15-1.15.4-2.01-1.47-1.46-3.98,1.18-13.46,7.09-17.45,9.56-16.06,9.96-31.28,23.25-42.79,38.15-.64.83.02,1.83-2.29,1.26l6.52-37.97c44.82-27.27,56.07-65.68,48.19-116.23-2.42-15.49-6.77-33.67-15.25-46.79-2.4-.59-16.01,18.74-18.09,21.87-3.56,5.36-7.39,11.82-10.54,17.46-3.95,7.07-6.66,15.58-11.82,21.67l-7.83-31.3c31.66-39.38,23.77-84.47-2.16-124.22-6.05-9.27-18.81-26.15-27.53-32.47-1.2-.87-2.8-2.68-3.97-.99-2.35,3.42-4.91,14.65-5.86,19.15-3.6,17.02-3.98,34.52-5.16,51.83l-20.06-24.94c-.64-9.85,1.36-19.71.59-29.59-3.53-44.99-60.03-86.48-102.03-92.47,1,15.93,8.34,30.63,11.99,46C458.88,2.52,357.97-3.24,268.75,28.35c-14.29,5.06-27.91,11.64-41.75,17.74Z"/>
  <path class="cls-4" d="M128,355.1l-50.95-12.05c-2.15-94.4,43.01-187.75,117.05-245.35,96.85-75.34,227.99-87.7,336.92-30.13,146.41,77.39,208.04,262.35,126.23,409.52-11.44,1.88-23.13,1.78-34.63,3.12-75.67,8.85-151.54,35.22-214.13,78.53-15.8-7.55-32.03-14.61-47.17-23.48-59.44-34.83-95.88-91.53-152.01-131.99-11.2-8.08-22.96-15.34-34.32-23.17,15.14,5.18,30.68,12.21,44.88,19.61,45.81,23.89,79.32,61.46,115.52,97.48,14,13.93,23.9,34.69,47.91,21.7,3.82-2.07,14.43-12.41,15.4-12.66,1.52-.39,11.3,3.06,15.75,2.87,16.6-.72,37.96-25.32,50.07-36.99,12.04-11.6,35.93-32.66,45-45,4.52-6.15,3.28-12.99,10.14-17.86,5.39-3.82,15.88-6.79,22.29-4.62,9.87,5.29,29.24,30.52,40.31,28.28,6.48-1.31,7.79-13.49,16.21-13.66,4.41-.09,10.13,4.08,14.5.3,2.26-1.96,3.47-9.48,5.2-12.79,2.33-4.43,8.06-7.92,8.76-12.23,1.29-7.9-3.49-11.68-5.41-18.47-5.01-17.75,3.14-35.87,4.46-53.49,1.46-19.46-2.45-45.2-5.13-64.85-2.42-17.76-6.14-57.94-19.85-69.15-6.69-5.47-7.74-2.19-15.55-2.45-10.41-.34-5.73-6.13-12.13-11.88-7.84-1.59-19.86,3.2-27.08.08-5.36-2.31-5.87-12.73-16.83-14.16-5.06-.66-15.18.19-16.97,5.86-.9,8.93,3.35,30.77-1.22,37.78-4.2,6.45-25.17,8.34-32.28,6.83-5.72-1.21-9.36-6.84-15.42-7.58-7.15-.87-28.32-.29-30.31,8.73-1.92,8.68,1.28,9.82-4.8,19.2-6.31,9.73-8.73,7.45-16.77,12.23-8.75,5.21-2.2,16.3-5.16,22.84-.35.77-8.26,8.6-9.47,9.52-1.01.77-1.26,1.93-3.01,1.49v-77.5c0-2.34,2.35-9.08,3.26-11.74,1.99-5.88,5.08-11.1,7.99-16.5,33.02-4.56,61.46-24.17,72.04-56.47,1.58-4.82,6.93-26.35,5.22-29.79-1.52-3.06-16.38-3.2-20.05-3.04-25.86,1.12-53.97,12.93-66.17,36.83-7.12,13.95-11.26,34.17-2.79,48.19,8.4-19.87,23.12-40.1,42.48-50.5,1.46-.79,4.45-3.01,6.01-1.99-15.35,12.77-27.92,29.2-40.03,45.02-.7.91-2.2,1.23-2.98,2.26-4.74,6.29-9.2,13.88-12,21.22l-2.05-.62c-15.35-26.17-38.75-46.6-62.93-64.37,22.36,6.53,41.08,25.4,51.99,45.5.86,1.41,2.01-1.87,2.01-2.01v-21c0-13.62-18.43-34.56-29.98-41.02-18.88-10.56-44.84-13.73-65.81-10.24-1.9,1.78,1.46,12.81,2.29,15.76,4.86,17.34,14.95,38.5,30.19,48.81,15.92,10.78,33.54,12.47,51.87,16.13,4.16,5.84,7.83,12.02,10.18,18.82,1.61,4.64,4.26,14.16,4.26,18.74v72.5l-21.08-15.42c-39.02-23.02-81.18-15.65-112.92,15.42v-112.5l-1.5-1.5h-56c-.18,0-2.5,2.32-2.5,2.5v65.5h-54.5c-.18,0-2.5,2.32-2.5,2.5v118.5Z"/>
  <path class="cls-10" d="M83.25,397.84l-3.25-17.74c22.1,5.4,43.93,12.71,64.96,21.53,34.3,14.38,79.18,35.67,93.79,72.21,4.7,11.74,5.69,23.96,11.72,35.28,11.41,21.44,31.65,31.5,52.84,41.16,52.07,23.74,110.74,37.16,153.66,77.32.03,1.14-8.37,2.7-9.94,3.04-40.19,8.68-84.97,8.1-124.97-1.11-28-45.25-104.64-57.58-110.95-116.05-1.38-12.75.28-22.34-4.94-35.06-17.12-41.73-84.01-65.32-122.92-80.58Z"/>
  <path class="cls-4" d="M437.34,386.75c10.68,10.43,24.81,22.16,34.18,33.33,3.72,4.44,5.12,7.33,1.48,12.52-6.83,9.73-14.37,1.93-20.53-3.47-9.24-8.11-22.44-25.63-31.53-31.47-6.93-4.46-13.25,3.38-10.42,10.43l37.49,37.51c6.55,6.37-1.66,18.31-9.03,16.09-9.86-2.97-30.31-32.79-40.42-39.63-6.81-3.99-13.61,4.72-9.01,12.01s19.45,18.98,25.97,26.03c1.91,2.07,11.67,12.66,12.08,13.98,2.14,6.99-6.18,13.23-13.13,11.11-8.46-2.58-5.94-6.89-9.82-13.22-4.34-7.08-13.13-13.49-21.57-13.92-.87-13.26-11.57-26.01-24.97-28.03.07-13.7-11.5-25.03-25.04-25.96-1.89-16.73-15.52-30.38-33.28-24.65-7.88,2.54-14.66,13.52-22.15,17.65-9.61-9.3-19.88-18.06-25.49-30.57-26.42-58.8,41.22-116.86,94.77-81.77,7.38,4.84,13.86,11.7,20.07,17.91-7.55,8.07-16,15.37-23.5,23.49-10.65,11.53-20.82,19.98-17.38,37.42,3.79,19.17,26.83,27.54,44.29,25.49,8.94-1.05,15.33-6.59,22.08-11.92,4.68-3.69,14.28-15,19.98-13.98,1.48.26,4.19,2.53,5.44,3.61,6.64,5.74,12.99,13.73,19.45,20.05Z"/>
  <path class="cls-4" d="M449.79,274.39c57.83-5.73,95.67,60.18,60.18,106.18-6.34,8.21-14.32,15.06-21.47,22.51l-74.22-72.78-5.24.34c-12.24,8.08-33.44,35.86-47.65,37.4-11.22,1.21-16.37-8.53-8.91-16.96,29.16-23.49,57.64-72.75,97.32-76.68Z"/>
  <path class="cls-3" d="M229.99,595.1c-.7.72-15.77-8.86-17.52-9.97-48.88-31.2-87.37-77.94-110.47-131.02,23.63,11.19,46.67,24.71,66,42.49,28.8,26.48,46.59,63.14,61.98,98.51Z"/>
  <path class="cls-4" d="M306.73,398.25c4.03-1.11,8.19,3.76,8.19,7.35,0,4-17.33,23.22-21.49,23.49-5.34.35-8.85-5.73-6.67-10.74.43-.99,8.8-10.37,10.22-11.78,1.81-1.8,7.84-7.79,9.76-8.32Z"/>
  <path class="cls-4" d="M361.68,452.42c3.42,3.75,2.58,7.08-.16,10.7-1.57,2.08-14.08,14.49-15.78,15.23-4.47,1.95-10.67-2.32-10.66-6.75,0-4.87,17.49-21.97,22.36-21.5,1.02.1,3.53,1.53,4.25,2.32Z"/>
  <path class="cls-4" d="M328.74,425.35c6.27-1.68,12.15,3.42,9.51,9.49-.64,1.48-14.94,16.06-16.74,17.27-5.05,3.38-11.45-.35-11.44-5.5,0-3.52,15.5-20.41,18.67-21.26Z"/>
  <path class="cls-4" d="M379.75,477.27c5.34-.89,10.62,5.54,8.51,10.54-1.05,2.48-12.28,12.98-14.93,14.13-7.14,3.09-15.16-1.56-11.82-8.83,1.15-2.5,15.27-15.35,18.23-15.85Z"/>
  <path class="cls-2" d="M661,560.11c-24.45,20.37-54.97,35.82-87,38.98,13.62-9.81,31.33-13.14,46.99-19.5,5.69-2.31,11.83-4.99,17.37-7.63,7.69-3.66,14.8-8.49,22.64-11.85Z"/>
  <path class="cls-12" d="M195.99,598.11c.26,1.71-2.38,1.07-3.47.97-28.28-2.44-61.76-21.49-83.52-38.97,10.89,5.12,21.28,11.31,32.33,16.16,18.03,7.93,37.47,12.32,54.67,21.84Z"/>
  <path d="M195,48.11c-17.42,20.13-26.52,46.32-47.99,62.99,6.24-13.5,14.45-26.19,23.59-37.9,5.76-7.38,13.81-17.16,20.89-23.11,1.12-.94,1.63-2.43,3.5-1.99Z"/>
  <path class="cls-9" d="M621.99,110.1c-21.24-16.39-30.07-41.93-46.99-61.99,1.88-.44,2.38,1.04,3.5,1.99,6.72,5.65,14.41,15.09,19.89,22.11,8.93,11.42,17.96,24.51,23.59,37.9Z"/>
  <path class="cls-8" d="M55.99,350.1c-3.41-3.04-5.35-8.2-7.16-12.33-8.43-19.3-12.79-40.76-14.82-61.66,1.44-.14,1.62,2.36,2.01,3.47,2.27,6.61,3.61,13.61,5.72,20.29,5.2,16.48,14.04,33.09,14.26,50.23Z"/>
  <path class="cls-7" d="M714.01,351.1c-.98-13.99,6.57-26.8,10.7-39.79,3.38-10.63,6.03-22,9.59-32.42.36-1.05.22-3.02,1.68-2.79-2.07,22.41-7.35,46.19-16.82,66.67-1.26,2.72-2.64,6.6-5.16,8.33Z"/>
  <path class="cls-11" d="M92.99,485.1c-16.62-11.02-31.4-27.36-42.8-43.69-3.33-4.76-6.96-9.93-9.18-15.31,5.81,5.38,10.14,12.22,15.48,18.01,3.72,4.05,39.76,37.34,36.5,40.99Z"/>
  <path class="cls-6" d="M77.01,221.1c-2.17-19.97,1-40.09,6.07-59.42l5.91-18.57c-1.16,11.55-3.64,22.98-4.98,34.51s-.64,29.5-4.73,40.27c-.48,1.27-.58,2.94-2.27,3.22Z"/>
  <path class="cls-1" d="M692.98,220.09c-1.75-1-2.78-5.31-3.27-7.21-3.6-13.97-2.97-33.18-4.84-48.15-.91-7.24-2.36-14.5-3.86-21.63,1.68.28,1.79,1.95,2.27,3.22,1.56,4.1,3.11,10.38,4.22,14.78,4.7,18.64,7.7,39.87,5.48,59Z"/>
  <path class="cls-13" d="M678.01,485.1c-.84-.94,5.21-10.37,6.33-11.66,7.48-8.64,19.01-17.43,27.17-26.33,6.77-7.38,12.64-15.68,19.48-23.01-2.6,6.23-7.17,12.78-11.18,18.31-11.46,15.85-26.1,31.1-41.81,42.68Z"/>
  <path class="cls-4" d="M143,302.6c.82-2.66,9.6-1.12,12.01-1.5-.87,6.24,2.09,11.97-.11,17.89l-11.89.11v-16.5Z"/>
  <path class="cls-4" d="M143,271.1c2.32-.84,12.18-2.38,12.88.58l-.88,16.43h-12.01v-17.01Z"/>
  <rect class="cls-4" x="166" y="301.1" width="12" height="18"/>
  <path class="cls-4" d="M166,288.1v-16.5c0-2.73,10-1.08,11.56.44v15.12s-11.56.94-11.56.94Z"/>
  <path class="cls-4" d="M211,232.1v15.5c-2.9,2.93-8.14.98-12,1.5v-17h12Z"/>
  <polygon class="cls-4" points="231 232.1 231 249.1 219.43 248.16 219.43 233.04 231 232.1"/>
  <path class="cls-4" d="M199,221.1v-15.5c13.23-6.48,13.76,5.1,11.06,15.06l-11.06.44Z"/>
  <path class="cls-4" d="M231,205.1v16l-10.95-.05c-1.8-10.77-3.91-20.69,10.95-15.95Z"/>
  <path class="cls-10" d="M446.23,313.59c.71,6.32,3.83,10.44,7.6,15.4,4.45,5.86,7.37,9.71,11.4,9.57,5.32-.2,8.74-7.21,9.89-9.57,2.79-5.71,4.63-15.34,0-20.3-2.89-3.1-5.96-1.87-9.05-5.91-2.7-3.54-1.6-6.13-3.99-7.64-3.08-1.95-8.5.07-11.64,3-5.39,5.02-4.49,13.1-4.22,15.46Z"/>
</svg>